<svg width="1200" height="1200" viewBox="0 0 1200 1200" fill="none" xmlns="http://www.w3.org/2000/svg">
<rect width="1200" height="1200" rx="100" fill="#D0C8BA"/>
<path d="M867.802 854.272H339.974C331.638 854.272 326.643 860.891 326.643 869.219V974.784C326.643 983.113 331.639 990 339.974 990H867.804C876.139 990 884.633 983.113 884.633 974.784V869.219C884.633 860.891 876.138 854.272 867.802 854.272ZM854.471 959.839H356.804V884.434H854.471V959.839Z" fill="black" stroke="#C6BCAD" stroke-width="1.5625"/>
<path d="M596.347 446.956C446.672 446.956 324.893 612.705 324.893 816.436C324.893 824.764 331.638 831.517 339.974 831.517C348.31 831.517 355.055 824.764 355.055 816.436C355.055 629.331 463.302 477.117 596.349 477.117C729.396 477.117 837.643 629.331 837.643 816.436C837.643 824.764 844.388 831.517 852.724 831.517C861.06 831.517 867.805 824.764 867.805 816.436C867.802 612.705 746.022 446.956 596.347 446.956Z" fill="black" stroke="#C6BCAD" stroke-width="1.5625"/>
<path d="M533.005 558.553C528.013 551.881 518.543 550.512 511.9 555.541C448.028 603.442 431.577 666.836 430.914 669.509C428.882 677.595 433.802 685.783 441.886 687.8C443.108 688.109 444.346 688.25 445.553 688.25C452.313 688.25 458.455 683.676 460.163 676.83C460.31 676.276 474.596 621.219 529.986 579.666C536.658 574.672 538.013 565.216 533.005 558.553Z" fill="black" stroke="#C6BCAD" stroke-width="1.5625"/>
<path d="M456.202 421.212L312.743 277.745C306.852 271.854 297.309 271.854 291.418 277.745C285.527 283.636 285.527 293.179 291.418 299.07L434.877 442.537C437.823 445.483 441.682 446.956 445.54 446.956C449.399 446.956 453.257 445.483 456.202 442.537C462.093 436.647 462.093 427.103 456.202 421.212Z" fill="black" stroke="#C6BCAD" stroke-width="1.5625"/>
<path d="M598.098 190C589.762 190 583.017 196.753 583.017 205.081V401.714C583.017 410.042 589.762 416.795 598.098 416.795C606.434 416.795 613.179 410.042 613.179 401.714V205.081C613.178 196.753 606.432 190 598.098 190Z" fill="black" stroke="#C6BCAD" stroke-width="1.5625"/>
<path d="M908.627 270.403C902.736 264.513 893.193 264.513 887.302 270.403L736.494 421.211C730.604 427.102 730.604 436.646 736.494 442.536C739.439 445.481 743.299 446.955 747.157 446.955C751.016 446.955 754.874 445.481 757.819 442.536L908.627 291.728C914.518 285.839 914.518 276.296 908.627 270.403Z" fill="black" stroke="#C6BCAD" stroke-width="1.5625"/>
</svg>